<svg xmlns="http://www.w3.org/2000/svg" version="1.1" viewBox="245 180 800 950">
<g>
    <path d="M398.54 225.93H728.72C754.87 225.93 776.07 251.94 776.07 284.02V687.32C776.07 719.41 754.87 745.42 728.72 745.42H398.54C372.39 745.42 351.19 719.41 351.19 687.32V283.9C351.19 251.94 372.39 225.93 398.54 225.93Z" fill="#E7E0DA" opacity="1" stroke-width="4" stroke="#00000000">
    </path>
</g>

<!-- TEXT -->
<g>
    <path d="M744.76 282.02H376.04V713.42H744.76V282.02Z" fill="#E7E0DA" opacity="1" stroke-width="4" stroke="#00000000">
    </path>
    <path d="M446.71 361.91H522.91C526 361.93 528.96 363.16 531.15 365.35 533.34 367.54 534.56 370.49 534.59 373.58V373.58C534.56 376.68 533.34 379.63 531.15 381.82 528.96 384 526 385.24 522.91 385.26H446.71C443.63 385.24 440.67 384 438.48 381.82 436.29 379.63 435.06 376.68 435.04 373.58V373.58C435.06 370.49 436.29 367.54 438.48 365.35 440.67 363.16 443.63 361.93 446.71 361.91V361.91Z" fill="#C8414F" opacity="1" stroke-width="4" stroke="#00000000">
    </path>
    <path d="M569.62 361.91H596.66C599.74 361.93 602.7 363.16 604.89 365.35 607.08 367.54 608.31 370.49 608.33 373.58V373.58C608.31 376.68 607.08 379.63 604.89 381.82 602.7 384 599.74 385.24 596.66 385.26H569.62C566.53 385.24 563.57 384 561.38 381.82 559.19 379.63 557.97 376.68 557.94 373.58V373.58C557.97 370.49 559.19 367.54 561.38 365.35 563.57 363.16 566.53 361.93 569.62 361.91V361.91Z" fill="#4a3e30" opacity="1" stroke-width="4" stroke="#00000000">
    </path>
    <path d="M642.13 361.91H669.17C672.26 361.93 675.22 363.16 677.4 365.35 679.59 367.54 680.82 370.49 680.85 373.58V373.58C680.82 376.68 679.59 379.63 677.4 381.82 675.22 384 672.26 385.24 669.17 385.26H642.13C639.05 385.24 636.08 384 633.9 381.82 631.71 379.63 630.48 376.68 630.46 373.58 630.48 370.49 631.71 367.54 633.9 365.35 636.08 363.16 639.05 361.93 642.13 361.91Z" fill="#4a3e30" opacity="1" stroke-width="4" stroke="#00000000">
    </path>
    <path d="M446.71 548.11H522.91C526 548.13 528.96 549.37 531.15 551.55 533.34 553.74 534.56 556.69 534.59 559.79V559.79C534.56 562.88 533.34 565.83 531.15 568.02 528.96 570.21 526 571.44 522.91 571.46H446.71C443.63 571.44 440.67 570.21 438.48 568.02 436.29 565.83 435.06 562.88 435.04 559.79V559.79C435.06 556.69 436.29 553.74 438.48 551.55 440.67 549.37 443.63 548.13 446.71 548.11Z" fill="#4a3e30" opacity="1" stroke-width="4" stroke="#00000000">
    </path>
    <path d="M569.62 548.11H669.17C672.26 548.13 675.22 549.37 677.4 551.55 679.59 553.74 680.82 556.69 680.85 559.79V559.79C680.82 562.88 679.59 565.83 677.4 568.02 675.22 570.21 672.26 571.44 669.17 571.46H569.62C566.53 571.44 563.57 570.21 561.38 568.02 559.19 565.83 557.97 562.88 557.94 559.79V559.79C557.97 556.69 559.19 553.74 561.38 551.55 563.57 549.37 566.53 548.13 569.62 548.11V548.11Z" fill="#4a3e30" opacity="1" stroke-width="4" stroke="#00000000">
    </path>
    <path d="M446.71 486.04H564.7C567.79 486.06 570.75 487.3 572.94 489.48 575.12 491.67 576.35 494.63 576.38 497.72 576.35 500.81 575.12 503.77 572.94 505.95 570.75 508.14 567.79 509.37 564.7 509.39H446.71C443.63 509.37 440.67 508.14 438.48 505.95 436.29 503.77 435.06 500.81 435.04 497.72V497.72C435.06 494.63 436.29 491.67 438.48 489.48 440.67 487.3 443.63 486.06 446.71 486.04Z" fill="#C8414F" opacity="1" stroke-width="4" stroke="#00000000">
    </path>
    <path d="M520.46 423.98H596.66C599.74 424 602.7 425.23 604.89 427.42 607.08 429.6 608.31 432.56 608.33 435.65V435.65C608.31 438.74 607.08 441.7 604.89 443.89 602.7 446.07 599.74 447.31 596.66 447.33H520.46C517.37 447.31 514.41 446.07 512.22 443.89 510.03 441.7 508.8 438.74 508.78 435.65V435.65C508.8 432.56 510.03 429.6 512.22 427.42 514.41 425.23 517.37 424 520.46 423.98V423.98Z" fill="#4a3e30" opacity="1" stroke-width="4" stroke="#00000000">
    </path>
    <path d="M446.71 423.98H473.75C476.84 424 479.8 425.23 481.99 427.42 484.17 429.6 485.4 432.56 485.43 435.65 485.4 438.74 484.17 441.7 481.99 443.89 479.8 446.07 476.84 447.31 473.75 447.33H446.71C443.63 447.31 440.67 446.07 438.48 443.89 436.29 441.7 435.06 438.74 435.04 435.65V435.65C435.06 432.56 436.29 429.6 438.48 427.42 440.67 425.23 443.63 424 446.71 423.98V423.98Z" fill="#4a3e30" opacity="1" stroke-width="4" stroke="#00000000">
    </path>
    <path d="M642.13 423.98H669.17C672.26 424 675.22 425.23 677.4 427.42 679.59 429.6 680.82 432.56 680.85 435.65V435.65C680.82 438.74 679.59 441.7 677.4 443.89 675.22 446.07 672.26 447.31 669.17 447.33H642.13C639.05 447.31 636.08 446.07 633.9 443.89 631.71 441.7 630.48 438.74 630.46 435.65V435.65C630.48 432.56 631.71 429.6 633.9 427.42 636.08 425.23 639.05 424 642.13 423.98Z" fill="#4a3e30" opacity="1" stroke-width="4" stroke="#00000000">
    </path>
    <path d="M520.46 610.18H669.17C672.26 610.2 675.22 611.43 677.4 613.62 679.59 615.8 680.82 618.76 680.85 621.85V621.85C680.82 624.94 679.59 627.9 677.4 630.09 675.22 632.27 672.26 633.51 669.17 633.53H520.46C517.37 633.51 514.41 632.27 512.22 630.09 510.03 627.9 508.8 624.94 508.78 621.85V621.85C508.8 618.76 510.03 615.8 512.22 613.62 514.41 611.43 517.37 610.2 520.46 610.18V610.18Z" fill="#4a3e30" opacity="1" stroke-width="4" stroke="#00000000">
    </path>
    <path d="M446.71 610.18H473.75C476.84 610.2 479.8 611.43 481.99 613.62 484.17 615.8 485.4 618.76 485.43 621.85 485.4 624.94 484.17 627.9 481.99 630.09 479.8 632.27 476.84 633.51 473.75 633.53H446.71C443.63 633.51 440.67 632.27 438.48 630.09 436.29 627.9 435.06 624.94 435.04 621.85V621.85C435.06 618.76 436.29 615.8 438.48 613.62 440.67 611.43 443.63 610.2 446.71 610.18Z" fill="#4a3e30" opacity="1" stroke-width="4" stroke="#00000000">
    </path>
    </g>
    <!-- DOTS -->
    <g>
        <path d="M617.61 296.17C626.69 296.17 634.05 288.81 634.05 279.73 634.05 270.65 626.69 263.29 617.61 263.29 608.53 263.29 601.17 270.65 601.17 279.73 601.17 288.81 608.53 296.17 617.61 296.17Z" fill="#635340" opacity="1" stroke-width="4" stroke="#00000000">
        </path>
        <path d="M671.11 296.17C680.19 296.17 687.55 288.81 687.55 279.73 687.55 270.65 680.19 263.29 671.11 263.29 662.03 263.29 654.67 270.65 654.67 279.73 654.67 288.81 662.03 296.17 671.11 296.17Z" fill="#635340" opacity="1" stroke-width="4" stroke="#00000000">
        </path>
        <path d="M724.61 296.17C733.69 296.17 741.05 288.81 741.05 279.73 741.05 270.65 733.69 263.29 724.61 263.29 715.53 263.29 708.17 270.65 708.17 279.73 708.17 288.81 715.53 296.17 724.61 296.17Z" fill="#635340" opacity="1" stroke-width="4" stroke="#00000000">
        </path>
        </g>
        <!-- FOLDER -->
        <g>
            <path d="M415.6 856.3H258.55C249.9 856.3 242.84 849.25 242.84 840.6V730.1C242.84 721.45 249.9 714.39 258.55 714.39H301C306.57 714.39 311.7 717.35 314.54 722.13L319.43 730.44C322.28 735.22 327.4 738.18 332.98 738.18H415.71C424.36 738.18 431.42 745.23 431.42 753.88V840.6C431.42 849.25 424.36 856.3 415.6 856.3 415.71 856.3 415.71 856.3 415.6 856.3Z" fill="#D5BC72" opacity="1" stroke-width="4" stroke="#00000000">
        </path>
        </g>
        <!-- SKIN -->
        <g>
            <path d="M918.32 426.23L918.88 380.82C918.88 380.07 918.88 379.42 918.97 378.67 919.07 377.93 919.07 377.09 919.07 376.15 919.53 359.28 920.28 331.12 901.44 318.53 893.33 313.12 883.08 310.33 871.61 310.33 867.04 310.33 862.47 310.79 857.99 311.54 843.54 313.59 832.35 321.89 826.66 334.66 823.87 341.84 823.31 352.75 822.93 361.52 822.75 362.91 822.75 364.31 822.75 365.8 821.91 365.99 817.99 367.11 815.94 369.07 815.2 369.72 814.64 370.56 814.36 371.59 814.08 375.22 818.92 380.16 820.04 381 817.34 398.53 819.39 408.79 826.76 415.22 830.95 418.95 838.23 421.19 845.96 421.19 849.79 421.19 853.61 420.72 857.34 419.79L857.15 426.41 918.32 426.23Z" fill="#cb8c62" opacity="1" stroke-width="4" stroke="#00000000">
            </path>
            <path d="M906.76 1033.88C907.88 1016.91 907.78 999.38 906.39 982.51L821.91 981.85C822.37 990.06 823.87 999.76 823.68 1008.15 823.68 1008.15 852.77 1008.61 853.14 1008.71 856.31 1009.08 859.21 1010.67 861.16 1013.09 863.12 1015.61 864.05 1018.68 863.68 1021.86L862.28 1033.79 906.76 1033.88Z" fill="#cb8c62" opacity="1" stroke-width="4" stroke="#00000000">
            </path>
            <path d="M1037.95 1034.16V1033.79C1037.76 1016.82 1036.83 999.66 1033.29 983.07V982.97L1033.01 982.69 943.4 982.97C945.73 991.27 948.9 1000.04 950.96 1008.15L980.23 1008.52C980.33 1008.52 980.42 1008.52 980.51 1008.52 980.89 1008.52 981.17 1008.61 981.54 1008.71 984.71 1009.08 987.6 1010.67 989.56 1013.09 991.52 1015.61 992.45 1018.68 992.08 1021.86L990.77 1034.44 1037.95 1034.16Z" fill="#cb8c62" opacity="1" stroke-width="4" stroke="#00000000">
            </path>
            <path d="M731.09 525.71C719.62 521.61 707.13 517.6 692.95 513.5 671.42 507.44 657.34 506.13 649.32 506.13 649.04 506.13 648.66 506.13 648.39 506.13 645.87 506.13 643.35 506.32 640.93 506.69 639.53 506.97 638.41 508 637.94 509.3 637.48 510.98 638.59 512.66 639.25 513.59 635.52 513.87 614.63 515.46 610.25 522.54 609.32 523.94 609.13 525.71 609.69 527.3 606.99 530 606.71 532.33 606.89 533.83 607.17 535.97 608.76 537.84 611.65 539.33 611.27 541.57 611.65 543.8 612.95 545.76 614.63 547.81 617.15 549.03 619.76 549.12 622.84 549.4 626.85 549.58 631.42 549.58 636.36 549.58 641.49 549.49 644.84 549.3 645.22 549.3 645.4 549.77 645.03 549.96 638.78 553.22 626.75 560.03 625.07 564.97 624.7 565.72 624.8 566.55 625.26 567.21 625.82 568.33 627.41 568.98 629.46 568.98 636.54 568.98 650.44 563.2 655.01 561.33 655.56 561.05 656.03 560.87 656.22 560.87L656.5 560.96C662.37 563.29 673.65 567.3 682.98 567.3H683.26C685.03 567.3 686.89 567.11 688.67 566.74 695.01 572.24 701.25 576.9 708.25 581.47L731.09 525.71Z" fill="#cb8c62" opacity="1" stroke-width="4" stroke="#00000000">
            </path>
            <!-- TOP -->
            <path d="M952.63 631.36C952.63 631.36 952.73 631.36 952.82 631.26 958.32 629.03 986.2 616.35 993.1 586.04 998.79 561.52 990.02 500.26 964.1 463.9 951.24 445.9 935.85 435.92 918.32 434.06 918.51 430.42 918.51 422.78 918.51 422.68V422.5H857.15L856.5 434.06C827.78 436.95 802.98 456.53 784.52 490.84 778.18 502.68 764.38 526.27 759.9 534.01 759.25 535.13 758.78 535.97 758.5 536.34 758.13 536.25 757.57 535.97 756.83 535.6 752.91 533.92 743.59 530.1 730.72 525.53L730.16 525.34 706.66 580.54 710.48 583.43C722.89 591.64 748.06 605.25 776.78 605.25 776.97 605.25 777.15 605.25 777.25 605.25 778.18 605.25 779.02 605.16 779.95 605.06 792.26 604.6 803.73 598.82 814.08 587.91 819.3 582.41 824.05 575.79 827.78 568.7L832.35 607.02 941.35 608.05 952.26 631.26 952.63 631.36Z" fill="#D7CDC1" opacity="1" stroke-width="4" stroke="#00000000">
            </path>
            <!-- RIGHT SHOE -->
            <path d="M1036.55 1063.72C1037.58 1053.74 1038.14 1043.77 1038.04 1033.88V1033.51H991.42C991.61 1033.51 992.63 1023.16 992.73 1022.41 993.66 1014.96 988.16 1007.87 980.33 1007.87L950.96 1007.96C953.01 1019.71 951.89 1028.01 947.69 1032.86 942.56 1038.64 936.88 1043.95 930.82 1048.71L930.26 1049.18C924.47 1054.02 919.81 1057.75 916.92 1063.44L1036.55 1063.72Z" fill="#100D05" opacity="1" stroke-width="4" stroke="#00000000">
            </path>
            <path d="M1034.59 1078.27C1034.59 1078.27 1036.64 1071.37 1036.64 1063.16H917.02C917.02 1063.16 913.38 1068.85 913.38 1074.72 913.38 1076.31 913.85 1078.45 913.85 1078.45L1034.59 1078.27Z" fill="#211d08" opacity="1" stroke-width="4" stroke="#00000000">
            </path>
            <!-- PANTS -->
            <path d="M832.26 606.65L882.61 606.56 942.19 606.46 942.28 606.56C974.45 650.47 973.15 689.54 971.19 748.75V750.15C970.63 767.86 969.98 787.91 970.16 810.29 970.35 831.46 980.05 849.64 992.35 872.57L993.1 873.97C1004.85 896.16 1019.39 923.76 1028.81 961.9 1030.58 968.8 1032.26 976.17 1033.47 983.25L943.5 983.35C943.5 983.35 930.26 949.5 921.96 930.66L920.75 927.77C906.95 896.16 891.37 860.36 883.54 828.75 882.61 834.25 881.96 839.66 881.86 844.79 881.3 866.7 884.75 879.01 889.6 896.07L889.98 897.38C896.32 918.26 901.07 939.9 904.05 961.62 905.08 967.96 906.57 983.35 906.48 983.35L821.82 983.25C819.95 967.68 816.41 949.03 813.14 933L812.58 929.83C807.55 904.09 801.95 874.81 799.53 845.91 788.71 714.81 831.79 607.58 832.26 606.65Z" fill="#100D05" opacity="1" stroke-width="4" stroke="#00000000">
            </path>
            <path d="M916.36 721.62C906.2 760.96 889.6 796.02 883.73 826.7" stroke="#000000" stroke-width="4" stroke-linecap="round" stroke-linejoin="round" opacity="1" fill="none">
            </path>
            <!-- LEFT SHOE -->
            <path d="M903.22 1063.91L903.31 1063.63C904.99 1053.84 906.29 1043.77 906.95 1033.79V1033.42H862.66C862.66 1033.42 864.15 1020.83 864.15 1020.36 864.15 1013.46 858.46 1007.78 851.56 1007.78H823.49V1008.15C823.03 1019.52 820.51 1027.54 815.85 1032.86 810.25 1039.01 803.91 1044.61 797.11 1049.45 790.86 1054.12 785.92 1058.03 782.84 1063.35L903.22 1063.91Z" fill="#100D05" opacity="1" stroke-width="4" stroke="#00000000">
            </path>
            <path d="M900.42 1078.27L903.4 1062.79 782.93 1063.16C782.93 1063.16 778.92 1068.01 779.2 1074.35 779.2 1075.38 779.58 1078.45 779.58 1078.45L900.42 1078.27Z" fill="#211d08" opacity="1" stroke-width="4" stroke="#00000000">
            </path>
            <path d="M881.12 694.67C887.27 694.67 893.24 692.15 897.53 687.68 910.77 674.44 910.95 645.53 910.95 644.32V643.95H857.99V644.32C857.62 646.28 853.52 674.44 864.71 687.49 868.44 692.24 873.84 694.67 880.74 694.67H881.12Z" fill="#100D05" opacity="1" stroke-width="4" stroke="#00000000"></path>
            <path d="M971.75 694.39V694.02C970.82 674.53 967.93 658.77 962.8 644.41L962.61 644.04H937.44V644.41C937.44 645.62 937.53 674.44 950.86 687.77 955.15 692.06 961.03 694.58 967.09 694.58L971.75 694.39Z" fill="#100D05" opacity="1" stroke-width="4" stroke="#00000000"></path>
            <path d="M947.79 1032.86L959.44 1039.48" stroke="#00000000" stroke-width="4" stroke-linecap="round" stroke-linejoin="round" opacity="1" fill="none"></path>
            <path d="M942.1 1039.48L947.79 1047.22" stroke="#00000000" stroke-width="4" stroke-linecap="round" stroke-linejoin="round" opacity="1" fill="none"></path>
            <path d="M815.29 1033.88L826.85 1040.5" stroke="#00000000" stroke-width="4" stroke-linecap="round" stroke-linejoin="round" opacity="1" fill="none"></path>
            <path d="M808.85 1040.04L814.54 1047.78" stroke="#00000000" stroke-width="4" stroke-linecap="round" stroke-linejoin="round" opacity="1" fill="none"></path>
            <path d="M827.88 568.23L837.39 549.49" stroke="#00000000" stroke-width="4" stroke-linecap="round" stroke-linejoin="round" opacity="1" fill="none"></path>
            <path d="M941.16 605.16L949.74 545.76" stroke="#000000" stroke-width="4" stroke-linecap="round" stroke-linejoin="round" opacity="1" fill="none"></path>
            <path d="M758.5 535.97L763.17 546.23" stroke="#00000000" stroke-width="4" stroke-linecap="round" stroke-linejoin="round" opacity="1" fill="none"></path>
            <path d="M834.22 363.75C832.72 363.75 831.51 364.97 831.51 366.46 831.51 367.95 832.72 369.16 834.22 369.16 835.71 369.16 836.92 367.95 836.92 366.46 836.92 364.97 835.71 363.75 834.22 363.75Z" fill="#01000500" opacity="1" stroke-width="4" stroke="#ffffff00">
            </path>
            <path d="M840.18 382.77C838.6 385.39 835.89 387.06 832.82 387.16" stroke="#00000000" stroke-width="4" stroke-linecap="round" stroke-linejoin="round" opacity="1" fill="none">
            </path>
            <path d="M869.93 414.76C866.29 416.81 862.38 418.39 858.37 419.51" stroke="#00000000" stroke-width="4" stroke-linecap="round" stroke-linejoin="round" opacity="1" fill="none">
            </path>
            <path d="M653.42 513.22C649.5 513.22 645.68 513.22 639.99 513.41" stroke="#000000" stroke-width="4" stroke-linecap="round" stroke-linejoin="round" opacity="1" fill="none">
            </path>
            <path d="M610.25 526.93C610.25 526.93 624.61 521.61 664.89 524.69" stroke="#000000" stroke-width="4" stroke-linecap="round" stroke-linejoin="round" opacity="1" fill="none">
            </path>
            <path d="M612.21 538.86C618.83 537.37 634.4 534.95 662.93 537.09" stroke="#000000" stroke-width="4" stroke-linecap="round" stroke-linejoin="round" opacity="1" fill="none">
            </path>
            <path d="M917.67 433.87H907.22" stroke="#00000000" stroke-width="4" stroke-linecap="round" stroke-linejoin="round" opacity="1" fill="none">
            </path>
            <path d="M991.52 1033.04L985.36 1063.53" stroke="#00000000" stroke-width="4" stroke-linecap="round" stroke-linejoin="round" opacity="1" fill="none">
            </path>
            <path d="M862.66 1033.42L855.48 1063.53" stroke="#00000000" stroke-width="4" stroke-linecap="round" stroke-linejoin="round" opacity="1" fill="none">
            </path>
            <path d="M883.08 379.88L876.36 386.04" stroke="#00000000" stroke-width="4" stroke-linecap="round" stroke-linejoin="round" opacity="1" fill="none">
            </path>
            <!-- HAIR -->
            <path d="M912.73 411.12C916.18 411.12 918.51 410.75 918.51 410.75 921.12 410.37 923.54 409.35 925.59 407.67 928.67 405.25 930.63 401.7 931.09 397.79 931.56 393.96 930.54 390.14 931.72 387.77 933.24 385.57 937.25 381.47 938.55 376.34 939.49 372.42 938.93 368.42 936.88 364.97 934.92 361.7 927.1 358.71 928.2 358.25 933.71 355.92 937.44 350.51 937.44 344.45 937.44 336.25 930.72 329.53 922.52 329.53 921.86 329.41 924.38 324.41 924.38 321.7 924.38 312.1 916.55 304.36 906.95 304.36H906.85C903.03 304.36 899.3 305.66 896.22 307.99 895.3 308.88 893.15 299.79 889.42 297.46 886.99 295.97 884.29 295.13 881.49 295.13 876.36 295.13 871.79 297.64 869 301.84 868.08 303.68 863.31 296.43 859.39 295.69 858.55 295.5 857.62 295.41 856.69 295.41 849.51 295.41 843.45 300.44 842.05 307.44 841.9 310.05 837.76 306.22 835.62 306.22 826.01 306.22 818.18 314.06 818.18 323.66 818.18 332.98 825.73 340.72 835.15 339.78 838.15 339.77 833.88 347.9 836.48 353.5 838.13 357.13 843.45 360.49 849.14 360.49 851.28 360.49 853.33 360.02 853.18 360.35 854.82 365.43 858.29 374.35 862.19 374.56H862.6L865 372.87C866.86 371.54 876.36 363.1 886.34 363.1 891.28 363.1 895.1 365.43 897.81 369.91 906.2 383.71 888.32 399.65 886.94 400.94L886.58 401.24 885.52 402.2C882.86 404.85 905.73 411.12 912.73 411.12Z" fill="#010005" opacity="1" stroke-width="4" stroke="#00000000"></path></g></svg>