 <svg
        xmlns="http://www.w3.org/2000/svg"
        width="100%"
        height="30em"
        version="1.1"
        viewBox="340 150 900 950"
      >
        {/* NOTES */}
        <g>
          {/* NOTE #bottom */}
          <path
            d="M699.35 373.77H763.61C785.95 353.64 778.5 315.68 778.5 315.68H714.24C714.24 315.68 721.69 353.64 699.35 373.77Z"
            fill="#F3D591"
            opacity="1"
            strokeWidth="4"
            stroke="#00000000"
          ></path>
          {/* NOTE #up */}
          <path
            d="M640.52 297.48H704.78C727.11 277.34 719.67 239.38 719.67 239.38H655.41C655.41 239.38 662.86 277.34 640.52 297.48Z"
            fill="#a9d4e7"
            opacity="1"
            strokeWidth="4"
            stroke="#00000000"
          ></path>
        </g>
        {/* TEA CUP*/}
        <g>
          <path
            d="M851.22 626.67C825.76 627.2 804.96 606.54 804.96 581.35V537.5C804.96 537.37 804.96 537.37 805.1 537.37H895.47C895.6 537.37 895.6 537.37 895.6 537.5V580.55C895.6 605.34 876.01 626.14 851.22 626.67Z"
            fill="#f3e1ce"
            opacity="1"
            strokeWidth="4"
            stroke="#00000000"
          ></path>
          {/* TEA CUP INTERIOR */}
          <path
            d="M850.28 561.36C821.36 561.36 806.56 539.9 805.1 537.63 805.1 537.5 805.1 537.37 805.23 537.37H895.34C895.47 537.37 895.47 537.5 895.47 537.63 894 539.9 879.21 561.36 850.28 561.36Z"
            fill="#EFD7BD"
            opacity="1"
            strokeWidth="4"
            stroke="#00000000"
          ></path>
          <path
            d="M788.3 589.35C797.5 589.35 804.96 581.89 804.96 572.69 804.96 563.49 797.5 556.03 788.3 556.03 779.11 556.03 771.64 563.49 771.64 572.69 771.64 581.89 779.11 589.35 788.3 589.35Z"
            stroke="#f3e1ce"
            strokeWidth="4"
            strokeLinecap="round"
            strokeLinejoin="round"
            opacity="1"
            fill="none"
          ></path>
        </g>
        <g>
          {/* DESK */}
          <path
            d="M961.64 1031.84H940.98V713.21C940.98 678.09 918.42 649.48 890.73 649.48H540.82C513.13 649.48 490.57 678.09 490.57 713.21V1031.84H469.91V713.21C469.91 665.06 501.73 625.88 540.82 625.88H890.73C929.82 625.88 961.64 665.06 961.64 713.21V1031.84Z"
            fill="#443936"
            opacity="1"
            strokeWidth="4"
            stroke="#00000000"
          ></path>
        </g>
        <g>
          {/* POT */}
          <path
            d="M1102.87 1032.2H1029.2L1020.83 952.63H1111.24L1102.87 1032.2Z"
            fill="#694316"
            opacity="1"
            strokeWidth="4"
            stroke="#00000000"
          ></path>
          <path
            d="M1102.87 1032.2H1074.05L1095.2 952.63H1111.24L1102.87 1032.2Z"
            fill="#69431600"
            opacity="0"
            stroke="#00000000"
            strokeWidth="4"
          ></path>
          <path
            d="M1120.23 938.44H1011.84V970.25H1120.23V938.44Z"
            fill="#694316"
            opacity="1"
            strokeWidth="4"
            stroke="#00000000"
          ></path>
          {/* RIGHT LEAF */}
          <path
            d="M1126.81 915.41C1143.41 910.13 1153.72 895.93 1149.82 883.68 1145.93 871.44 1129.32 865.79 1112.72 871.07 1096.11 876.35 1085.81 890.55 1089.69 902.79 1093.59 915.04 1110.21 920.68 1126.81 915.41Z"
            fill="#8FA253"
            opacity="1"
            strokeWidth="4"
            stroke="#00000000"
          ></path>
          {/* LEFT LEAF */}
          <path
            d="M1021.9 914.67C1041.82 909.46 1054.36 891.46 1049.91 874.46 1045.47 857.46 1025.71 847.91 1005.8 853.13 985.88 858.34 973.34 876.34 977.79 893.34 982.24 910.33 1001.99 919.89 1021.9 914.67Z"
            fill="#A2B36B"
            opacity="1"
            strokeWidth="4"
            stroke="#00000000"
          ></path>
          {/* MIDDLE LEAF */}
          <path
            d="M1109.65 828.42C1116.36 806.1 1107.03 783.56 1088.8 778.08 1070.58 772.6 1050.37 786.25 1043.66 808.58 1036.95 830.9 1046.28 853.44 1064.5 858.93 1082.72 864.41 1102.94 850.75 1109.65 828.42Z"
            fill="#B3C186"
            opacity="1"
            strokeWidth="4"
            stroke="#00000000"
          ></path>
          <path
            d="M1088.15 778.6C1064.09 850.59 1065.59 938.44 1065.59 938.44"
            stroke="#606D37"
            strokeWidth="4"
            strokeLinecap="round"
            strokeLinejoin="round"
            opacity="1"
            fill="none"
          ></path>
          <path
            d="M1149.48 884C1087.53 892.37 1066.65 915.81 1066.65 915.81"
            stroke="#606D37"
            strokeWidth="4"
            strokeLinecap="round"
            strokeLinejoin="round"
            opacity="1"
            fill="none"
          ></path>
          <path
            d="M1109.39 970.25H1022.68"
            stroke="#5E3D1D"
            strokeWidth="4"
            strokeLinecap="round"
            strokeLinejoin="round"
            opacity="1"
            fill="none"
          ></path>
          <path
            d="M977.83 893.69C1025.59 862.32 1066.65 879.33 1066.65 879.33"
            stroke="#606D37"
            strokeWidth="4"
            strokeLinecap="round"
            strokeLinejoin="round"
            opacity="1"
            fill="none"
          ></path>
        </g>
        <g>
          {/* COMPUTER TOP */}
          <path
            d="M769.88 612.71L804.28 507.06C805.51 503.11 805.22 499.54 803.25 496.81 801.46 494.27 798.46 492.96 794.88 492.96H643.08C635.28 492.96 627.01 499.25 624.47 506.96L590.07 612.71 769.88 612.71Z"
            fill="grey"
            opacity="1"
            strokeWidth="4"
            stroke="#00000000"
          ></path>
          {/* COMPUTER SCREEN */}
          <path
            d="M756.35 611.67L788.59 512.7H634.81L602.57 611.67H756.35Z"
            fill="#F6F7F5"
            opacity="1"
            strokeWidth="4"
            stroke="#00000000"
          ></path>
          {/* COMPUTER BOTTOM */}
          <path
            d="M477.18 611.3L653.98 611.3H770.07L768.75 615.53C766.97 621.17 761.61 625.02 755.69 625.02H663.85 487.05C485.92 625.02 484.7 624.83 483.57 624.46 478.21 622.58 475.3 616.75 477.18 611.3Z"
            fill="grey"
            opacity="1"
            strokeWidth="4"
            stroke="#00000000"
          ></path>
          <path
            d="M755.69 625.02C767.81 625.12 770.35 611.39 770.35 611.39L653.98 611.3C653.61 612.33 653.42 613.46 653.42 614.49 653.42 620.23 658.03 624.93 663.85 625.02H755.69Z"
            fill="#5cb03600"
            opacity="0"
            stroke="#00000000"
            strokeWidth="4"
          ></path>
          <path
            d="M770.35 611.3L590.44 611.3"
            stroke="#00000000"
            strokeWidth="4"
            strokeLinecap="round"
            strokeLinejoin="round"
            opacity="1"
            fill="none"
          ></path>
        </g>
        <g>
          {/* SKIN */}
          <path
            d="M738.61 611.4C736.26 611.53 734.03 610.66 732.29 609.05 730.93 607.32 730.19 605.21 729.12 605.72 723.5 606.33 715.95 607.94 708.39 607.69 701.58 607.69 694.77 606.7 688.08 604.96 687.46 605.33 684.24 606.82 679.04 609.3L677.05 608.56 668.14 545.51 670.49 544.52C693.28 542.66 715.82 541.79 736.13 541.79 764.87 541.79 796.08 544.02 797.32 550.09 797.82 551.7 797.57 553.44 796.58 554.8 794.1 557.9 786.17 559.38 766.48 560.25 767.22 562.11 770.32 571.77 763.01 577.09 764.5 579.08 765.12 581.43 764.99 583.78 764.75 586.76 763.01 589.6 759.92 592.33 761.28 594.44 761.53 596.91 760.66 599.27 759.54 602.49 755.83 607.07 744.8 610.41 742.7 611.03 740.72 611.4 738.61 611.4Z"
            fill="#cb895d"
            opacity="1"
            strokeWidth="4"
            stroke="#00000000"
          ></path>
          <path
            d="M523.22 958.21L520.25 951.65 520.12 951.4C521.36 939.88 523.34 928.24 525.7 916.47L531.02 900.62 627.88 902.47 632.84 916.59C630.36 924.15 628.87 931.7 627.88 939.51L600.01 994.5 523.22 958.21Z"
            fill="#cb895d"
            opacity="1"
            strokeWidth="4"
            stroke="#00000000"
          ></path>
          {/* LEFT SHOE - SOLE */}
          <path
            d="M517.04 1031.04V1030.79C516.92 1023.73 516.79 1016.92 516.79 1010.11L520.63 1005.65 661.96 1009.49 663.07 1009.98C663.32 1010.11 663.57 1010.23 663.69 1010.48 666.79 1016.55 668.77 1025.34 668.77 1030.79V1031.04H517.04Z"
            fill="#E9E9E9"
            opacity="1"
            strokeWidth="4"
            stroke="#00000000"
          ></path>
          {/* LEFT SHOE */}
          <path
            d="M516.79 1010.11V1009.86C516.79 1001.56 517.16 993.51 517.41 985.71 517.54 982.49 517.78 979.27 517.91 976.29 518.4 967.75 520.14 951.4 520.14 951.4H520.38C559.9 953.13 585.91 974.31 591.48 979.27 591.73 979.39 591.97 979.27 591.97 979.02L588.38 956.23C587.76 952.02 588.88 947.68 591.73 944.46 594.45 941.24 598.42 939.51 602.63 939.51H627.52C627.65 939.51 627.77 939.63 627.77 939.88 627.65 940.62 627.52 942.23 627.52 942.6 627.4 944.96 627.15 947.06 627.15 949.17 627.27 974.44 638.42 984.59 649.32 994.5 653.66 998.34 657.37 1002.3 658.61 1003.67 658.86 1003.91 659.11 1004.29 659.35 1004.53L663.07 1009.74C663.19 1009.98 663.07 1010.23 662.82 1010.23L516.79 1010.11Z"
            fill="#100A04"
            opacity="1"
            strokeWidth="4"
            stroke="#00000000"
          ></path>
          {/* PANTS - LEFT */}
          <path
            d="M525.71 916.47C534.01 872.5 548.5 830.02 568.44 790.01L520.26 750.99C488.06 750.99 453.13 780.35 438.51 762.02 426.13 746.53 422.04 725.73 426.99 703.68 434.3 671.97 446.07 651.66 446.19 651.41L446.32 651.29 484.09 655.5C485.46 655.62 621.95 671.35 663.57 720.9 691.19 753.59 666.04 822.96 645.85 878.82 640.9 892.56 636.19 905.57 632.85 916.59L525.71 916.47Z"
            fill="#80C0DB"
            opacity="1"
            strokeWidth="4"
            stroke="#00000000"
          ></path>
          <path
            d="M602.5 848.72C580.33 831.87 550.73 831.25 550.48 831.25H550.11L550.23 830.76C555.68 816.76 561.75 803.01 568.44 789.76H510.1C477.9 789.76 453.13 780.1 438.51 761.77 426.13 746.29 422.04 725.48 426.99 703.43 434.3 671.72 446.07 651.41 446.19 651.16L446.32 651.04 484.09 655.25C485.46 655.37 621.95 671.1 663.57 720.65 691.19 753.35 666.04 822.71 645.85 878.57 644 883.77 642.14 888.85 640.4 893.68L640.16 894.3C640.28 894.3 618.23 860.86 602.5 848.72Z"
            fill="#5cb03600"
            opacity="0"
            stroke="#00000000"
            strokeWidth="4"
          ></path>
          <path
            d="M629.99 968.12L613.14 975.18"
            stroke="#00000000"
            strokeWidth="4"
            strokeLinecap="round"
            strokeLinejoin="round"
            opacity="1"
            fill="none"
          ></path>
          <path
            d="M637.17 981.87L625.65 990.54"
            stroke="#00000000"
            strokeWidth="4"
            strokeLinecap="round"
            strokeLinejoin="round"
            opacity="1"
            fill="none"
          ></path>
          <path
            d="M632.84 916.59L525.7 916.47"
            stroke="#00000000"
            strokeWidth="4"
            strokeLinecap="round"
            strokeLinejoin="round"
            opacity="1"
            fill="none"
          ></path>
          {/* SKIN */}
          <path
            d="M688.82 964.9L688.7 962.17C687.83 959.82 679.53 962.05 678.54 959.45 674.82 949.42 669.99 935.17 667.39 925.76L670.61 913.5 751.25 866.31 764.37 878.69C766.85 891.45 768.59 899.13 769.82 902.23L764.13 964.77 688.82 964.9Z"
            fill="#cb895d"
            opacity="1"
            strokeWidth="4"
            stroke="#00000000"
          ></path>
          {/* RIGHT SHOE */}
          <path
            d="M700.46 1011.1C700.22 1011.1 700.09 1010.97 700.09 1010.73 695.88 1001.68 688.32 984.47 687.33 981.62 684.24 974.06 679.28 961.18 678.79 959.57 678.79 959.45 678.79 959.32 678.91 959.32L680.65 958.58C696 951.52 711.11 948.67 728.08 948.67 737.62 948.55 746.91 949.79 756.08 952.14 756.7 952.26 757.19 951.65 756.82 951.03L745.67 935.05C740.47 927.49 742.33 917.09 749.88 911.89 750.63 911.39 751.37 910.9 752.11 910.52L769.45 902.47C769.82 902.35 770.2 902.47 770.44 902.72 770.69 903.09 770.81 903.59 770.94 903.96 771.56 905.45 772.3 906.93 773.04 908.29 784.44 930.84 799.05 934.92 813.17 938.89 819.99 940.87 826.43 942.6 832.25 946.44L832.37 947.06 708.64 1013.2 700.46 1011.1Z"
            fill="#100A04"
            opacity="1"
            strokeWidth="4"
            stroke="#00000000"
          ></path>
          <path
            d="M783.45 923.78L772.43 937.15"
            stroke="#00000000"
            strokeWidth="4"
            strokeLinecap="round"
            strokeLinejoin="round"
            opacity="1"
            fill="none"
          ></path>
          <path
            d="M795.83 932.94L789.77 946.07"
            stroke="#00000000"
            strokeWidth="4"
            strokeLinecap="round"
            strokeLinejoin="round"
            opacity="1"
            fill="none"
          ></path>
          {/* SKIN */}
          <path
            d="M447.54 446.55C443.95 428.84 451.75 406.91 450.14 397.25L445.07 389.82C442.09 374.34 442.22 353.53 458.94 338.29 469.59 328.88 469.71 332.47 485.57 332.47 493.87 332.47 497.21 329.62 505.01 332.6 514.8 336.31 527.68 330.74 532.39 338.42 537.46 346.47 540.93 356.87 545.02 369.26L545.64 371.24C551.83 372.11 555.42 373.84 556.04 376.2 557.03 380.41 551.96 386.85 551.21 387.84 557.9 408.65 557.65 420.04 550.47 429.83 546.01 435.9 537.09 439.61 526.44 439.61 522.48 439.61 518.64 439.12 514.92 437.88L516.66 448.78 447.29 447.04 447.54 446.55Z"
            fill="#cb895d"
            opacity="1"
            strokeWidth="4"
            stroke="#00000000"
          ></path>
          <path
            d="M501.06 436.14C500.69 435.4 500.69 434.53 501.19 433.79 501.81 432.67 503.17 432.3 504.28 432.92L515.06 437.75 516.42 446.18 505.64 451.01 501.06 436.14Z"
            fill="#cb895d00"
            opacity="0"
            stroke="#00000000"
            strokeWidth="4"
          ></path>
          {/* TOP */}
          <path
            d="M410.01 683.99C409.39 683.74 352.17 652.4 362.7 595.92 365.67 576.72 373.1 551.08 383.14 525.82 394.65 496.59 405.68 483.33 408.77 479.99 423.64 463.64 446.55 459.68 449.28 459.3 449.15 458.31 448.66 455.34 448.29 452.49 447.91 450.02 447.67 447.79 447.42 446.79V446.18H519.63L521.86 459.68C569.92 467.23 582.92 492.87 604.6 535.35 607.2 540.43 609.8 545.63 612.65 551.08 630.48 548.48 651.91 546.13 670.24 544.52H670.49L679.04 609.3 677.55 610.04C663.06 616.85 641.26 627.13 610.42 628.25 609.8 628.25 609.18 628.25 608.56 628.25 579.7 628.25 555.05 603.23 551.96 600.01L540.56 645.47 540.44 646.21H427.48C426.36 648.19 413.6 671.72 410.51 683.61L410.38 683.86 410.01 683.99Z"
            fill="#F9F1DC"
            opacity="1"
            strokeWidth="4"
            stroke="#00000000"
          ></path>
          <path
            d="M410.01 684.11C400.35 678.54 391.68 671.48 384.13 663.3L383.88 663.05 384.13 662.93C392.42 656.98 398.99 648.69 402.95 639.27 405.93 631.96 406.92 623.17 407.91 615.37 409.39 603.48 421.04 602.86 421.04 602.86L427.35 646.08 427.6 646.46C427.48 646.7 413.73 671.72 410.51 683.99L410.38 684.23 410.01 684.11Z"
            fill="#69431600"
            opacity="0"
            stroke="#00000000"
            strokeWidth="4"
          ></path>
          {/* HAIR */}
          <path
            d="M449.15 477.51C437.88 477.51 427.85 473.18 421.53 465.62 416.08 459.18 413.85 450.51 415.46 442.21 418.93 422.27 439 414.1 441.23 413.23 439.74 404.93 438.38 396.51 437.63 391.93L437.51 391.31C434.54 375.82 428.96 346.96 445.68 331.85 456.34 322.44 471.57 316.99 487.42 316.99 495.72 316.99 504.02 318.48 511.83 321.45 520.37 324.55 527.68 330.49 532.51 338.29V338.42 338.54C532.6 357.7 508.85 352.12 510.29 354.79 521.78 373.32 506.14 389.35 505.57 390.04L505.05 390.72 504.6 391.29C502.89 389.91 488.66 378.42 476.65 378.42 471.32 378.42 467.61 380.78 465.5 385.48 455.84 407.28 486.56 423.51 485.85 423.57 486.27 425.43 493.87 465.25 465.38 474.66 460.05 476.52 454.6 477.51 449.15 477.51Z"
            fill="#1a1a1a"
            opacity="1"
            strokeWidth="4"
            stroke="#00000000"
          ></path>
          <path
            d="M551.96 600.01L530.65 570.78"
            stroke="#000000"
            strokeWidth="4"
            strokeLinecap="round"
            strokeLinejoin="round"
            opacity="1"
            fill="none"
          ></path>
          <path
            d="M393.17 608.06L421.04 602.86"
            stroke="#000000"
            strokeWidth="4"
            strokeLinecap="round"
            strokeLinejoin="round"
            opacity="1"
            fill="none"
          ></path>
          <path
            d="M612.65 551.08L607.57 572.39"
            stroke="#00000000"
            strokeWidth="4"
            strokeLinecap="round"
            strokeLinejoin="round"
            opacity="1"
            fill="none"
          ></path>
          <path
            d="M670.49 544.52L679.04 609.3"
            stroke="#00000000"
            strokeWidth="4"
            strokeLinecap="round"
            strokeLinejoin="round"
            opacity="1"
            fill="none"
          ></path>
          <path
            d="M521.86 459.68C517.4 459.43 510.09 459.92 510.09 459.92"
            stroke="#00000000"
            strokeWidth="4"
            strokeLinecap="round"
            strokeLinejoin="round"
            opacity="1"
            fill="none"
          ></path>
          <path
            d="M483.71 400.22L492.38 406.42"
            stroke="#00000000"
            strokeWidth="4"
            strokeLinecap="round"
            strokeLinejoin="round"
            opacity="1"
            fill="#ffffff00"
          ></path>
          <path
            d="M530.78 391.55C533.62 395.52 538.33 397.75 543.16 397.75"
            stroke="#00000000"
            strokeWidth="4"
            strokeLinecap="round"
            strokeLinejoin="round"
            opacity="1"
            fill="#ffffff00"
          ></path>
          <path
            d="M515.05 437.75L504.27 432.92"
            stroke="#00000000"
            strokeWidth="4"
            strokeLinecap="round"
            strokeLinejoin="round"
            opacity="1"
            fill="none"
          ></path>
          <path
            d="M532.63 377.93C534.34 377.93 535.73 376.54 535.73 374.83 535.73 373.12 534.34 371.74 532.63 371.74 530.92 371.74 529.54 373.12 529.54 374.83 529.54 376.54 530.92 377.93 532.63 377.93Z"
            fill="#231f2000"
            opacity="1"
            strokeWidth="4"
            stroke="#ffffff00"
          ></path>
          <path
            d="M766.11 560C756.2 555.05 740.1 553.81 740.1 553.81"
            stroke="#000000"
            strokeWidth="4"
            strokeLinecap="round"
            strokeLinejoin="round"
            opacity="1"
            fill="none"
          ></path>
          <path
            d="M762.64 577.09C754.96 573.63 737.62 571.15 737.62 571.15"
            stroke="#000000"
            strokeWidth="4"
            strokeLinecap="round"
            strokeLinejoin="round"
            opacity="1"
            fill="none"
          ></path>
          <path
            d="M759.54 592.33C752.48 589.73 735.14 587.25 735.14 587.25"
            stroke="#000000"
            strokeWidth="4"
            strokeLinecap="round"
            strokeLinejoin="round"
            opacity="1"
            fill="none"
          ></path>
          <path
            d="M591.96 979.02L598.4 1010.11"
            stroke="#00000000"
            strokeWidth="4"
            strokeLinecap="round"
            strokeLinejoin="round"
            opacity="1"
            fill="none"
          ></path>
          <path
            d="M521.24 575.48C520.25 572.76 521.73 569.66 524.58 568.8 526.81 568.05 529.29 568.8 530.65 570.78 535.36 577.71 551.96 600.01 551.96 600.01L542.42 637.91 521.24 575.48Z"
            fill="#69431600"
            opacity="0"
            stroke="#00000000"
            strokeWidth="4"
          ></path>
          {/* PANTS - RIGHT LEG */}
          <path
            d="M667.4 925.76C650.31 861.23 649.07 830.14 649.2 790.26L469.48 790.63C450.28 790.63 433.93 783.2 421.92 769.2 411.26 756.69 404.95 739.72 404.2 721.51 403.21 699.1 410.89 673.46 426.99 645.34L427.24 644.97 540.57 645.47C541.94 645.71 677.44 670.36 713.23 707.02 737.76 732.29 743.58 765.36 751.75 811.19 753.12 818.74 754.48 826.55 756.09 834.72L757.2 840.42C759.8 854.29 764.39 878.69 764.39 878.69L667.4 925.76Z"
            fill="#90C8E0"
            opacity="1"
            strokeWidth="4"
            stroke="#00000000"
          ></path>
          {/* SHOE - RIGHT SOLE */}
          <path
            d="M710 1030.3C706.78 1024.1 704.67 1020.14 701.7 1014.07L700.22 1010.97C700.22 1010.85 700.22 1010.73 700.34 1010.6L832.13 946.44 832.5 946.69C834.35 947.93 835.84 949.17 837.45 950.65L837.7 950.9C837.7 950.9 844.14 958.46 846.25 962.92L846.37 963.16 710.37 1031.04 710 1030.3Z"
            fill="#E9E9E9"
            opacity="1"
            strokeWidth="4"
            stroke="#00000000"
          ></path>
          <path
            d="M413.11 547.62L421.04 602.86 427.23 644.97 540.56 645.47"
            stroke="#000000"
            strokeWidth="4"
            strokeLinecap="round"
            strokeLinejoin="round"
            opacity="1"
            fill="none"
          ></path>
          <path
            d="M653.16 858.63C649.57 833.61 649.2 813.67 649.2 790.26L568.19 790.38"
            stroke="#000000"
            strokeWidth="4"
            strokeLinecap="round"
            strokeLinejoin="round"
            opacity="1"
            fill="none"
          ></path>
          <path
            d="M668.26 769.32L649.19 790.26"
            stroke="#00000000"
            strokeWidth="4"
            strokeLinecap="round"
            strokeLinejoin="round"
            opacity="1"
            fill="none"
          ></path>
          <path
            d="M764.37 878.69L667.39 925.76"
            stroke="#00000000"
            strokeWidth="4"
            strokeLinecap="round"
            strokeLinejoin="round"
            opacity="1"
            fill="none"
          ></path>
          <path
            d="M756.57 951.03L773.17 975.18"
            stroke="#00000000"
            strokeWidth="4"
            strokeLinecap="round"
            strokeLinejoin="round"
            opacity="1"
            fill="none"
          ></path>
        </g>
        {/* CHAIR */}
        <g>
          <path
            d="M463.77 790.17H491.95V977.57H463.77V790.17Z"
            fill="#443936"
            opacity="1"
            strokeWidth="4"
            stroke="#00000000"
          ></path>
          {/* CHAIR - TOP */}
          <path
            d="M360.62 609.35H468.76C483.16 609.35 496.85 621.05 499.35 635.34L527.74 796.76H367.51L339.13 635.34C336.63 621.05 346.32 609.35 360.62 609.35Z"
            fill="#DDB892"
            opacity="1"
            strokeWidth="4"
            stroke="#00000000"
          ></path>
          <path
            d="M547.63 975.58H407.59C399.8 975.58 393.5 981.97 393.5 989.67 393.5 997.46 399.9 1003.76 407.59 1003.76H547.63C555.42 1003.76 561.72 997.36 561.72 989.67 561.72 981.87 555.32 975.58 547.63 975.58Z"
            fill="#443936"
            opacity="1"
            strokeWidth="4"
            stroke="#00000000"
          ></path>
          <path
            d="M547.63 1031.95C539.84 1031.95 533.53 1025.64 533.53 1017.85 533.53 1010.07 539.84 1003.76 547.63 1003.76 555.41 1003.76 561.72 1010.07 561.72 1017.85 561.72 1025.64 555.41 1031.95 547.63 1031.95Z"
            fill="#231f20"
            opacity="1"
            strokeWidth="4"
            stroke="#00000000"
          ></path>
          <path
            d="M477.56 1031.95C469.77 1031.95 463.47 1025.64 463.47 1017.85 463.47 1010.07 469.77 1003.76 477.56 1003.76 485.35 1003.76 491.65 1010.07 491.65 1017.85 491.65 1025.64 485.35 1031.95 477.56 1031.95Z"
            fill="#231f20"
            opacity="1"
            strokeWidth="4"
            stroke="#00000000"
          ></path>
          <path
            d="M407.49 1031.95C399.71 1031.95 393.4 1025.64 393.4 1017.85 393.4 1010.07 399.71 1003.76 407.49 1003.76 415.28 1003.76 421.59 1010.07 421.59 1017.85 421.59 1025.64 415.28 1031.95 407.49 1031.95Z"
            fill="#231f20"
            opacity="1"
            strokeWidth="4"
            stroke="#00000000"
          ></path>
          <path
            d="M520.64 755.98L527.84 796.76H367.61L364.62 779.37 520.64 755.98Z"
            fill="#ffffff00"
            opacity="0"
            stroke="#00000000"
            strokeWidth="4"
          ></path>
          {/* CHAIR - BOTTOM */}
          <path
            d="M647.38 785.67H504.25C496.45 785.67 490.15 792.06 490.15 799.76 490.15 807.56 496.55 813.85 504.25 813.85H647.38C655.17 813.85 661.47 807.46 661.47 799.76 661.47 792.06 655.07 785.67 647.38 785.67Z"
            fill="#DDB892"
            opacity="1"
            strokeWidth="4"
            stroke="#00000000"
          ></path>
          {/* CHAIR - BOTTOM2 */}
          <path
            d="M526.44 785.67H368.21C360.42 785.67 354.12 792.06 354.12 799.76 354.12 807.56 360.52 813.85 368.21 813.85H526.44C534.23 813.85 540.53 807.46 540.53 799.76 540.53 792.06 534.23 785.67 526.44 785.67Z"
            fill="#D9AD82"
            opacity="1"
            strokeWidth="4"
            stroke="#00000000"
          ></path>
          <path
            d="M525.44 783.67H366.21"
            stroke="#00000000"
            strokeWidth="4"
            strokeLinecap="round"
            strokeLinejoin="round"
            opacity="1"
            fill="none"
          ></path>
        </g>
      </svg>